<?xml version="1.0" encoding="UTF-8"?><svg xmlns="http://www.w3.org/2000/svg" xmlns:xlink="http://www.w3.org/1999/xlink" contentStyleType="text/css" height="934px" preserveAspectRatio="none" style="width:2700px;height:934px;background:#FFFFFF;" version="1.1" viewBox="0 0 2700 934" width="2700px" zoomAndPan="magnify">
    <defs/>
    <g>
        <!--cluster es-->
        <g id="cluster_es">
            <rect fill="none" height="921" rx="2.5" ry="2.5" style="stroke:#000000;stroke-width:1.5;" width="2687" x="7" y="7"/>
            <text fill="#000000" font-family="sans-serif" font-size="14" font-weight="bold" lengthAdjust="spacing" textLength="17" x="1342" y="23.5332">es</text>
        </g>
        <!--cluster componentesrey-->
        <g id="cluster_componentesrey">
            <rect fill="none" height="853" rx="2.5" ry="2.5" style="stroke:#000000;stroke-width:1.5;" width="2639" x="31" y="51"/>
            <text fill="#000000" font-family="sans-serif" font-size="14" font-weight="bold" lengthAdjust="spacing" textLength="118" x="1291.5" y="67.5332">componentesrey</text>
        </g>
        <!--cluster beans-->
        <g id="cluster_beans">
            <rect fill="none" height="785" rx="2.5" ry="2.5" style="stroke:#000000;stroke-width:1.5;" width="329" x="2317" y="95"/>
            <text fill="#000000" font-family="sans-serif" font-size="14" font-weight="bold" lengthAdjust="spacing" textLength="43" x="2460" y="111.5332">beans</text>
        </g>
        <!--cluster DAO-->
        <g id="cluster_DAO">
            <rect fill="none" height="507.5" rx="2.5" ry="2.5" style="stroke:#000000;stroke-width:1.5;" width="614" x="1529" y="363.5"/>
            <text fill="#000000" font-family="sans-serif" font-size="14" font-weight="bold" lengthAdjust="spacing" textLength="30" x="1821" y="380.0332">DAO</text>
        </g>
        <!--cluster controllers-->
        <g id="cluster_controllers">
            <rect fill="none" height="318" rx="2.5" ry="2.5" style="stroke:#000000;stroke-width:1.5;" width="1450" x="55" y="156.5"/>
            <text fill="#000000" font-family="sans-serif" font-size="14" font-weight="bold" lengthAdjust="spacing" textLength="77" x="741.5" y="173.0332">controllers</text>
        </g>
        <!--cluster utils-->
        <g id="cluster_utils">
            <rect fill="none" height="111" rx="2.5" ry="2.5" style="stroke:#000000;stroke-width:1.5;" width="126" x="2167" y="363.5"/>
            <text fill="#000000" font-family="sans-serif" font-size="14" font-weight="bold" lengthAdjust="spacing" textLength="30" x="2215" y="380.0332">utils</text>
        </g>
        <!--class Categoria-->
        <g id="elem_Categoria">
            <rect codeLine="15" fill="#FFF3CD" height="111.5313" id="Categoria" rx="2.5" ry="2.5" style="stroke:#333333;stroke-width:0.5;" width="129" x="2406.5" y="752"/>
            <ellipse cx="2437.25" cy="773.3516" fill="#ADD1B2" rx="11" ry="11" style="stroke:#181818;stroke-width:1.0;"/>
            <path d="M2440.0156,769.2266 Q2440.1719,769.0078 2440.3594,768.8984 Q2440.5469,768.7891 2440.7656,768.7891 Q2441.1406,768.7891 2441.375,769.0547 Q2441.6094,769.3047 2441.6094,769.9141 L2441.6094,771.3672 Q2441.6094,771.9766 2441.375,772.2422 Q2441.1406,772.5078 2440.7656,772.5078 Q2440.4219,772.5078 2440.2188,772.3047 Q2440.0156,772.1172 2439.9063,771.6016 Q2439.8594,771.2422 2439.6719,771.0547 Q2439.3438,770.6797 2438.7344,770.4609 Q2438.125,770.2422 2437.5,770.2422 Q2436.7344,770.2422 2436.0938,770.5703 Q2435.4688,770.8984 2434.9688,771.6484 Q2434.4844,772.3984 2434.4844,773.4297 L2434.4844,774.5234 Q2434.4844,775.7578 2435.375,776.5859 Q2436.2656,777.3984 2437.8594,777.3984 Q2438.7969,777.3984 2439.4531,777.1484 Q2439.8438,776.9922 2440.2656,776.5547 Q2440.5313,776.2891 2440.6719,776.2109 Q2440.8281,776.1328 2441.0313,776.1328 Q2441.3594,776.1328 2441.6094,776.3984 Q2441.875,776.6484 2441.875,776.9922 Q2441.875,777.3359 2441.5313,777.7422 Q2441.0313,778.3203 2440.2344,778.6484 Q2439.1563,779.1016 2437.8594,779.1016 Q2436.3438,779.1016 2435.1406,778.4766 Q2434.1563,777.9766 2433.4688,776.9141 Q2432.7813,775.8359 2432.7813,774.5547 L2432.7813,773.3984 Q2432.7813,772.0703 2433.3906,770.9297 Q2434.0156,769.7734 2435.1094,769.1641 Q2436.2031,768.5391 2437.4375,768.5391 Q2438.1719,768.5391 2438.8125,768.7109 Q2439.4688,768.8672 2440.0156,769.2266 Z " fill="#000000"/>
            <text fill="#000000" font-family="sans-serif" font-size="12" font-style="italic" lengthAdjust="spacing" textLength="39" x="2466.25" y="769.457">«DTO»</text>
            <text fill="#000000" font-family="sans-serif" font-size="14" lengthAdjust="spacing" textLength="62" x="2454.75" y="786.627">Categoria</text>
            <line style="stroke:#333333;stroke-width:0.5;" x1="2407.5" x2="2534.5" y1="794.7031" y2="794.7031"/>
            <text fill="#000000" font-family="sans-serif" font-size="14" lengthAdjust="spacing" textLength="117" x="2412.5" y="813.2363">-idCategoria : byte</text>
            <text fill="#000000" font-family="sans-serif" font-size="14" lengthAdjust="spacing" textLength="102" x="2412.5" y="830.8457">-nombre : String</text>
            <text fill="#000000" font-family="sans-serif" font-size="14" lengthAdjust="spacing" textLength="100" x="2412.5" y="848.4551">-imagen : String</text>
            <line style="stroke:#333333;stroke-width:0.5;" x1="2407.5" x2="2534.5" y1="855.5313" y2="855.5313"/>
        </g>
        <!--class Producto-->
        <g id="elem_Producto">
            <rect codeLine="20" fill="#FFF3CD" height="146.75" id="Producto" rx="2.5" ry="2.5" style="stroke:#333333;stroke-width:0.5;" width="129" x="2406.5" y="545"/>
            <ellipse cx="2439.5" cy="566.3516" fill="#ADD1B2" rx="11" ry="11" style="stroke:#181818;stroke-width:1.0;"/>
            <path d="M2442.2656,562.2266 Q2442.4219,562.0078 2442.6094,561.8984 Q2442.7969,561.7891 2443.0156,561.7891 Q2443.3906,561.7891 2443.625,562.0547 Q2443.8594,562.3047 2443.8594,562.9141 L2443.8594,564.3672 Q2443.8594,564.9766 2443.625,565.2422 Q2443.3906,565.5078 2443.0156,565.5078 Q2442.6719,565.5078 2442.4688,565.3047 Q2442.2656,565.1172 2442.1563,564.6016 Q2442.1094,564.2422 2441.9219,564.0547 Q2441.5938,563.6797 2440.9844,563.4609 Q2440.375,563.2422 2439.75,563.2422 Q2438.9844,563.2422 2438.3438,563.5703 Q2437.7188,563.8984 2437.2188,564.6484 Q2436.7344,565.3984 2436.7344,566.4297 L2436.7344,567.5234 Q2436.7344,568.7578 2437.625,569.5859 Q2438.5156,570.3984 2440.1094,570.3984 Q2441.0469,570.3984 2441.7031,570.1484 Q2442.0938,569.9922 2442.5156,569.5547 Q2442.7813,569.2891 2442.9219,569.2109 Q2443.0781,569.1328 2443.2813,569.1328 Q2443.6094,569.1328 2443.8594,569.3984 Q2444.125,569.6484 2444.125,569.9922 Q2444.125,570.3359 2443.7813,570.7422 Q2443.2813,571.3203 2442.4844,571.6484 Q2441.4063,572.1016 2440.1094,572.1016 Q2438.5938,572.1016 2437.3906,571.4766 Q2436.4063,570.9766 2435.7188,569.9141 Q2435.0313,568.8359 2435.0313,567.5547 L2435.0313,566.3984 Q2435.0313,565.0703 2435.6406,563.9297 Q2436.2656,562.7734 2437.3594,562.1641 Q2438.4531,561.5391 2439.6875,561.5391 Q2440.4219,561.5391 2441.0625,561.7109 Q2441.7188,561.8672 2442.2656,562.2266 Z " fill="#000000"/>
            <text fill="#000000" font-family="sans-serif" font-size="12" font-style="italic" lengthAdjust="spacing" textLength="39" x="2466.5" y="562.457">«DTO»</text>
            <text fill="#000000" font-family="sans-serif" font-size="14" lengthAdjust="spacing" textLength="57" x="2457.5" y="579.627">Producto</text>
            <line style="stroke:#333333;stroke-width:0.5;" x1="2407.5" x2="2534.5" y1="587.7031" y2="587.7031"/>
            <text fill="#000000" font-family="sans-serif" font-size="14" lengthAdjust="spacing" textLength="117" x="2412.5" y="606.2363">-idProducto : short</text>
            <text fill="#000000" font-family="sans-serif" font-size="14" lengthAdjust="spacing" textLength="102" x="2412.5" y="623.8457">-nombre : String</text>
            <text fill="#000000" font-family="sans-serif" font-size="14" lengthAdjust="spacing" textLength="99" x="2412.5" y="641.4551">-precio : double</text>
            <text fill="#000000" font-family="sans-serif" font-size="14" lengthAdjust="spacing" textLength="93" x="2412.5" y="659.0645">-marca : String</text>
            <text fill="#000000" font-family="sans-serif" font-size="14" lengthAdjust="spacing" textLength="100" x="2412.5" y="676.6738">-imagen : String</text>
            <line style="stroke:#333333;stroke-width:0.5;" x1="2407.5" x2="2534.5" y1="683.75" y2="683.75"/>
        </g>
        <!--class Usuario-->
        <g id="elem_Usuario">
            <rect codeLine="27" fill="#FFF3CD" height="181.9688" id="Usuario" rx="2.5" ry="2.5" style="stroke:#333333;stroke-width:0.5;" width="142" x="2488" y="131"/>
            <ellipse cx="2530.9" cy="152.3516" fill="#ADD1B2" rx="11" ry="11" style="stroke:#181818;stroke-width:1.0;"/>
            <path d="M2533.6656,148.2266 Q2533.8219,148.0078 2534.0094,147.8984 Q2534.1969,147.7891 2534.4156,147.7891 Q2534.7906,147.7891 2535.025,148.0547 Q2535.2594,148.3047 2535.2594,148.9141 L2535.2594,150.3672 Q2535.2594,150.9766 2535.025,151.2422 Q2534.7906,151.5078 2534.4156,151.5078 Q2534.0719,151.5078 2533.8688,151.3047 Q2533.6656,151.1172 2533.5563,150.6016 Q2533.5094,150.2422 2533.3219,150.0547 Q2532.9938,149.6797 2532.3844,149.4609 Q2531.775,149.2422 2531.15,149.2422 Q2530.3844,149.2422 2529.7438,149.5703 Q2529.1188,149.8984 2528.6188,150.6484 Q2528.1344,151.3984 2528.1344,152.4297 L2528.1344,153.5234 Q2528.1344,154.7578 2529.025,155.5859 Q2529.9156,156.3984 2531.5094,156.3984 Q2532.4469,156.3984 2533.1031,156.1484 Q2533.4938,155.9922 2533.9156,155.5547 Q2534.1813,155.2891 2534.3219,155.2109 Q2534.4781,155.1328 2534.6813,155.1328 Q2535.0094,155.1328 2535.2594,155.3984 Q2535.525,155.6484 2535.525,155.9922 Q2535.525,156.3359 2535.1813,156.7422 Q2534.6813,157.3203 2533.8844,157.6484 Q2532.8063,158.1016 2531.5094,158.1016 Q2529.9938,158.1016 2528.7906,157.4766 Q2527.8063,156.9766 2527.1188,155.9141 Q2526.4313,154.8359 2526.4313,153.5547 L2526.4313,152.3984 Q2526.4313,151.0703 2527.0406,149.9297 Q2527.6656,148.7734 2528.7594,148.1641 Q2529.8531,147.5391 2531.0875,147.5391 Q2531.8219,147.5391 2532.4625,147.7109 Q2533.1188,147.8672 2533.6656,148.2266 Z " fill="#000000"/>
            <text fill="#000000" font-family="sans-serif" font-size="12" font-style="italic" lengthAdjust="spacing" textLength="39" x="2555.6" y="148.457">«DTO»</text>
            <text fill="#000000" font-family="sans-serif" font-size="14" lengthAdjust="spacing" textLength="48" x="2551.1" y="165.627">Usuario</text>
            <line style="stroke:#333333;stroke-width:0.5;" x1="2489" x2="2629" y1="173.7031" y2="173.7031"/>
            <text fill="#000000" font-family="sans-serif" font-size="14" lengthAdjust="spacing" textLength="108" x="2494" y="192.2363">-idUsuario : short</text>
            <text fill="#000000" font-family="sans-serif" font-size="14" lengthAdjust="spacing" textLength="87" x="2494" y="209.8457">-email : String</text>
            <text fill="#000000" font-family="sans-serif" font-size="14" lengthAdjust="spacing" textLength="114" x="2494" y="227.4551">-password : String</text>
            <text fill="#000000" font-family="sans-serif" font-size="14" lengthAdjust="spacing" textLength="102" x="2494" y="245.0645">-nombre : String</text>
            <text fill="#000000" font-family="sans-serif" font-size="14" lengthAdjust="spacing" textLength="69" x="2494" y="262.6738">-nif : String</text>
            <text fill="#000000" font-family="sans-serif" font-size="14" lengthAdjust="spacing" textLength="130" x="2494" y="280.2832">-ultimoAcceso : Date</text>
            <text fill="#000000" font-family="sans-serif" font-size="14" lengthAdjust="spacing" textLength="94" x="2494" y="297.8926">-avatar : String</text>
            <line style="stroke:#333333;stroke-width:0.5;" x1="2489" x2="2629" y1="304.9688" y2="304.9688"/>
        </g>
        <!--class LineaCarrito-->
        <g id="elem_LineaCarrito">
            <rect codeLine="36" fill="#FFF3CD" height="76.3125" id="LineaCarrito" rx="2.5" ry="2.5" style="stroke:#333333;stroke-width:0.5;" width="115" x="2486.5" y="391"/>
            <ellipse cx="2503.75" cy="412.3516" fill="#ADD1B2" rx="11" ry="11" style="stroke:#181818;stroke-width:1.0;"/>
            <path d="M2506.5156,408.2266 Q2506.6719,408.0078 2506.8594,407.8984 Q2507.0469,407.7891 2507.2656,407.7891 Q2507.6406,407.7891 2507.875,408.0547 Q2508.1094,408.3047 2508.1094,408.9141 L2508.1094,410.3672 Q2508.1094,410.9766 2507.875,411.2422 Q2507.6406,411.5078 2507.2656,411.5078 Q2506.9219,411.5078 2506.7188,411.3047 Q2506.5156,411.1172 2506.4063,410.6016 Q2506.3594,410.2422 2506.1719,410.0547 Q2505.8438,409.6797 2505.2344,409.4609 Q2504.625,409.2422 2504,409.2422 Q2503.2344,409.2422 2502.5938,409.5703 Q2501.9688,409.8984 2501.4688,410.6484 Q2500.9844,411.3984 2500.9844,412.4297 L2500.9844,413.5234 Q2500.9844,414.7578 2501.875,415.5859 Q2502.7656,416.3984 2504.3594,416.3984 Q2505.2969,416.3984 2505.9531,416.1484 Q2506.3438,415.9922 2506.7656,415.5547 Q2507.0313,415.2891 2507.1719,415.2109 Q2507.3281,415.1328 2507.5313,415.1328 Q2507.8594,415.1328 2508.1094,415.3984 Q2508.375,415.6484 2508.375,415.9922 Q2508.375,416.3359 2508.0313,416.7422 Q2507.5313,417.3203 2506.7344,417.6484 Q2505.6563,418.1016 2504.3594,418.1016 Q2502.8438,418.1016 2501.6406,417.4766 Q2500.6563,416.9766 2499.9688,415.9141 Q2499.2813,414.8359 2499.2813,413.5547 L2499.2813,412.3984 Q2499.2813,411.0703 2499.8906,409.9297 Q2500.5156,408.7734 2501.6094,408.1641 Q2502.7031,407.5391 2503.9375,407.5391 Q2504.6719,407.5391 2505.3125,407.7109 Q2505.9688,407.8672 2506.5156,408.2266 Z " fill="#000000"/>
            <text fill="#000000" font-family="sans-serif" font-size="12" font-style="italic" lengthAdjust="spacing" textLength="39" x="2537.75" y="408.457">«DTO»</text>
            <text fill="#000000" font-family="sans-serif" font-size="14" lengthAdjust="spacing" textLength="78" x="2518.25" y="425.627">LineaCarrito</text>
            <line style="stroke:#333333;stroke-width:0.5;" x1="2487.5" x2="2600.5" y1="433.7031" y2="433.7031"/>
            <text fill="#000000" font-family="sans-serif" font-size="14" lengthAdjust="spacing" textLength="103" x="2492.5" y="452.2363">-cantidad : short</text>
            <line style="stroke:#333333;stroke-width:0.5;" x1="2487.5" x2="2600.5" y1="459.3125" y2="459.3125"/>
        </g>
        <!--class LineaPedido-->
        <g id="elem_LineaPedido">
            <rect codeLine="39" fill="#FFF3CD" height="111.5313" id="LineaPedido" rx="2.5" ry="2.5" style="stroke:#333333;stroke-width:0.5;" width="116" x="2335" y="373"/>
            <ellipse cx="2352.25" cy="394.3516" fill="#ADD1B2" rx="11" ry="11" style="stroke:#181818;stroke-width:1.0;"/>
            <path d="M2355.0156,390.2266 Q2355.1719,390.0078 2355.3594,389.8984 Q2355.5469,389.7891 2355.7656,389.7891 Q2356.1406,389.7891 2356.375,390.0547 Q2356.6094,390.3047 2356.6094,390.9141 L2356.6094,392.3672 Q2356.6094,392.9766 2356.375,393.2422 Q2356.1406,393.5078 2355.7656,393.5078 Q2355.4219,393.5078 2355.2188,393.3047 Q2355.0156,393.1172 2354.9063,392.6016 Q2354.8594,392.2422 2354.6719,392.0547 Q2354.3438,391.6797 2353.7344,391.4609 Q2353.125,391.2422 2352.5,391.2422 Q2351.7344,391.2422 2351.0938,391.5703 Q2350.4688,391.8984 2349.9688,392.6484 Q2349.4844,393.3984 2349.4844,394.4297 L2349.4844,395.5234 Q2349.4844,396.7578 2350.375,397.5859 Q2351.2656,398.3984 2352.8594,398.3984 Q2353.7969,398.3984 2354.4531,398.1484 Q2354.8438,397.9922 2355.2656,397.5547 Q2355.5313,397.2891 2355.6719,397.2109 Q2355.8281,397.1328 2356.0313,397.1328 Q2356.3594,397.1328 2356.6094,397.3984 Q2356.875,397.6484 2356.875,397.9922 Q2356.875,398.3359 2356.5313,398.7422 Q2356.0313,399.3203 2355.2344,399.6484 Q2354.1563,400.1016 2352.8594,400.1016 Q2351.3438,400.1016 2350.1406,399.4766 Q2349.1563,398.9766 2348.4688,397.9141 Q2347.7813,396.8359 2347.7813,395.5547 L2347.7813,394.3984 Q2347.7813,393.0703 2348.3906,391.9297 Q2349.0156,390.7734 2350.1094,390.1641 Q2351.2031,389.5391 2352.4375,389.5391 Q2353.1719,389.5391 2353.8125,389.7109 Q2354.4688,389.8672 2355.0156,390.2266 Z " fill="#000000"/>
            <text fill="#000000" font-family="sans-serif" font-size="12" font-style="italic" lengthAdjust="spacing" textLength="39" x="2386.75" y="390.457">«DTO»</text>
            <text fill="#000000" font-family="sans-serif" font-size="14" lengthAdjust="spacing" textLength="79" x="2366.75" y="407.627">LineaPedido</text>
            <line style="stroke:#333333;stroke-width:0.5;" x1="2336" x2="2450" y1="415.7031" y2="415.7031"/>
            <text fill="#000000" font-family="sans-serif" font-size="14" lengthAdjust="spacing" textLength="95" x="2341" y="434.2363">-idLinea : short</text>
            <text fill="#000000" font-family="sans-serif" font-size="14" lengthAdjust="spacing" textLength="104" x="2341" y="451.8457">-idPedido : short</text>
            <text fill="#000000" font-family="sans-serif" font-size="14" lengthAdjust="spacing" textLength="103" x="2341" y="469.4551">-cantidad : short</text>
            <line style="stroke:#333333;stroke-width:0.5;" x1="2336" x2="2450" y1="476.5313" y2="476.5313"/>
        </g>
        <!--class Pedido-->
        <g id="elem_Pedido">
            <rect codeLine="44" fill="#FFF3CD" height="146.75" id="Pedido" rx="2.5" ry="2.5" style="stroke:#333333;stroke-width:0.5;" width="119" x="2333.5" y="148.5"/>
            <ellipse cx="2367.85" cy="169.8516" fill="#ADD1B2" rx="11" ry="11" style="stroke:#181818;stroke-width:1.0;"/>
            <path d="M2370.6156,165.7266 Q2370.7719,165.5078 2370.9594,165.3984 Q2371.1469,165.2891 2371.3656,165.2891 Q2371.7406,165.2891 2371.975,165.5547 Q2372.2094,165.8047 2372.2094,166.4141 L2372.2094,167.8672 Q2372.2094,168.4766 2371.975,168.7422 Q2371.7406,169.0078 2371.3656,169.0078 Q2371.0219,169.0078 2370.8188,168.8047 Q2370.6156,168.6172 2370.5063,168.1016 Q2370.4594,167.7422 2370.2719,167.5547 Q2369.9438,167.1797 2369.3344,166.9609 Q2368.725,166.7422 2368.1,166.7422 Q2367.3344,166.7422 2366.6938,167.0703 Q2366.0688,167.3984 2365.5688,168.1484 Q2365.0844,168.8984 2365.0844,169.9297 L2365.0844,171.0234 Q2365.0844,172.2578 2365.975,173.0859 Q2366.8656,173.8984 2368.4594,173.8984 Q2369.3969,173.8984 2370.0531,173.6484 Q2370.4438,173.4922 2370.8656,173.0547 Q2371.1313,172.7891 2371.2719,172.7109 Q2371.4281,172.6328 2371.6313,172.6328 Q2371.9594,172.6328 2372.2094,172.8984 Q2372.475,173.1484 2372.475,173.4922 Q2372.475,173.8359 2372.1313,174.2422 Q2371.6313,174.8203 2370.8344,175.1484 Q2369.7563,175.6016 2368.4594,175.6016 Q2366.9438,175.6016 2365.7406,174.9766 Q2364.7563,174.4766 2364.0688,173.4141 Q2363.3813,172.3359 2363.3813,171.0547 L2363.3813,169.8984 Q2363.3813,168.5703 2363.9906,167.4297 Q2364.6156,166.2734 2365.7094,165.6641 Q2366.8031,165.0391 2368.0375,165.0391 Q2368.7719,165.0391 2369.4125,165.2109 Q2370.0688,165.3672 2370.6156,165.7266 Z " fill="#000000"/>
            <text fill="#000000" font-family="sans-serif" font-size="12" font-style="italic" lengthAdjust="spacing" textLength="39" x="2388.65" y="165.957">«DTO»</text>
            <text fill="#000000" font-family="sans-serif" font-size="14" lengthAdjust="spacing" textLength="44" x="2386.15" y="183.127">Pedido</text>
            <line style="stroke:#333333;stroke-width:0.5;" x1="2334.5" x2="2451.5" y1="191.2031" y2="191.2031"/>
            <text fill="#000000" font-family="sans-serif" font-size="14" lengthAdjust="spacing" textLength="104" x="2339.5" y="209.7363">-idPedido : short</text>
            <text fill="#000000" font-family="sans-serif" font-size="14" lengthAdjust="spacing" textLength="82" x="2339.5" y="227.3457">-fecha : Date</text>
            <text fill="#000000" font-family="sans-serif" font-size="14" lengthAdjust="spacing" textLength="97" x="2339.5" y="244.9551">-estado : String</text>
            <text fill="#000000" font-family="sans-serif" font-size="14" lengthAdjust="spacing" textLength="107" x="2339.5" y="262.5645">-importe : double</text>
            <text fill="#000000" font-family="sans-serif" font-size="14" lengthAdjust="spacing" textLength="78" x="2339.5" y="280.1738">-iva : double</text>
            <line style="stroke:#333333;stroke-width:0.5;" x1="2334.5" x2="2451.5" y1="287.25" y2="287.25"/>
        </g>
        <!--class ConnectionFactory-->
        <g id="elem_ConnectionFactory">
            <rect codeLine="59" fill="#D4EDDA" height="93.9219" id="ConnectionFactory" rx="2.5" ry="2.5" style="stroke:#333333;stroke-width:0.5;" width="206" x="1736" y="761"/>
            <ellipse cx="1775.3" cy="782.3516" fill="#ADD1B2" rx="11" ry="11" style="stroke:#181818;stroke-width:1.0;"/>
            <path d="M1778.0656,778.2266 Q1778.2219,778.0078 1778.4094,777.8984 Q1778.5969,777.7891 1778.8156,777.7891 Q1779.1906,777.7891 1779.425,778.0547 Q1779.6594,778.3047 1779.6594,778.9141 L1779.6594,780.3672 Q1779.6594,780.9766 1779.425,781.2422 Q1779.1906,781.5078 1778.8156,781.5078 Q1778.4719,781.5078 1778.2688,781.3047 Q1778.0656,781.1172 1777.9563,780.6016 Q1777.9094,780.2422 1777.7219,780.0547 Q1777.3938,779.6797 1776.7844,779.4609 Q1776.175,779.2422 1775.55,779.2422 Q1774.7844,779.2422 1774.1438,779.5703 Q1773.5188,779.8984 1773.0188,780.6484 Q1772.5344,781.3984 1772.5344,782.4297 L1772.5344,783.5234 Q1772.5344,784.7578 1773.425,785.5859 Q1774.3156,786.3984 1775.9094,786.3984 Q1776.8469,786.3984 1777.5031,786.1484 Q1777.8938,785.9922 1778.3156,785.5547 Q1778.5813,785.2891 1778.7219,785.2109 Q1778.8781,785.1328 1779.0813,785.1328 Q1779.4094,785.1328 1779.6594,785.3984 Q1779.925,785.6484 1779.925,785.9922 Q1779.925,786.3359 1779.5813,786.7422 Q1779.0813,787.3203 1778.2844,787.6484 Q1777.2063,788.1016 1775.9094,788.1016 Q1774.3938,788.1016 1773.1906,787.4766 Q1772.2063,786.9766 1771.5188,785.9141 Q1770.8313,784.8359 1770.8313,783.5547 L1770.8313,782.3984 Q1770.8313,781.0703 1771.4406,779.9297 Q1772.0656,778.7734 1773.1594,778.1641 Q1774.2531,777.5391 1775.4875,777.5391 Q1776.2219,777.5391 1776.8625,777.7109 Q1777.5188,777.8672 1778.0656,778.2266 Z " fill="#000000"/>
            <text fill="#000000" font-family="sans-serif" font-size="12" font-style="italic" lengthAdjust="spacing" textLength="40" x="1834.7" y="778.457">«DAO»</text>
            <text fill="#000000" font-family="sans-serif" font-size="14" lengthAdjust="spacing" textLength="120" x="1794.7" y="795.627">ConnectionFactory</text>
            <line style="stroke:#333333;stroke-width:0.5;" x1="1737" x2="1941" y1="803.7031" y2="803.7031"/>
            <line style="stroke:#333333;stroke-width:0.5;" x1="1737" x2="1941" y1="811.7031" y2="811.7031"/>
            <text fill="#000000" font-family="sans-serif" font-size="14" lengthAdjust="spacing" text-decoration="underline" textLength="194" x="1742" y="830.2363">+getConnection() : Connection</text>
            <text fill="#000000" font-family="sans-serif" font-size="14" lengthAdjust="spacing" text-decoration="underline" textLength="161" x="1742" y="847.8457">+closeConnection() : void</text>
        </g>
        <!--class ICategoriaDAO-->
        <g id="elem_ICategoriaDAO">
            <rect codeLine="64" fill="#D4EDDA" height="58.7031" id="ICategoriaDAO" rx="2.5" ry="2.5" style="stroke:#333333;stroke-width:0.5;" width="128" x="1854" y="399.5"/>
            <ellipse cx="1869" cy="420.8516" fill="#B4A7E5" rx="11" ry="11" style="stroke:#181818;stroke-width:1.0;"/>
            <path d="M1869.9531,417.4922 L1869.9531,424.1484 L1871.6719,424.1484 Q1872.2813,424.1484 1872.5469,424.3828 Q1872.8125,424.6172 1872.8125,425.0078 Q1872.8125,425.3828 1872.5469,425.6172 Q1872.2813,425.8516 1871.6719,425.8516 L1866.5313,425.8516 Q1865.9219,425.8516 1865.6563,425.6172 Q1865.3906,425.3828 1865.3906,424.9922 Q1865.3906,424.6172 1865.6563,424.3828 Q1865.9219,424.1484 1866.5313,424.1484 L1868.25,424.1484 L1868.25,417.4922 L1866.5313,417.4922 Q1865.9219,417.4922 1865.6563,417.2578 Q1865.3906,417.0234 1865.3906,416.6328 Q1865.3906,416.2578 1865.6563,416.0234 Q1865.9219,415.7891 1866.5313,415.7891 L1871.6719,415.7891 Q1872.2813,415.7891 1872.5469,416.0234 Q1872.8125,416.2578 1872.8125,416.6328 Q1872.8125,417.0234 1872.5469,417.2578 Q1872.2813,417.4922 1871.6719,417.4922 L1869.9531,417.4922 Z " fill="#000000"/>
            <text fill="#000000" font-family="sans-serif" font-size="12" font-style="italic" lengthAdjust="spacing" textLength="40" x="1911" y="416.957">«DAO»</text>
            <text fill="#000000" font-family="sans-serif" font-size="14" font-style="italic" lengthAdjust="spacing" textLength="96" x="1883" y="434.127">ICategoriaDAO</text>
            <line style="stroke:#333333;stroke-width:0.5;" x1="1855" x2="1981" y1="442.2031" y2="442.2031"/>
            <line style="stroke:#333333;stroke-width:0.5;" x1="1855" x2="1981" y1="450.2031" y2="450.2031"/>
        </g>
        <!--class IProductoDAO-->
        <g id="elem_IProductoDAO">
            <rect codeLine="65" fill="#D4EDDA" height="58.7031" id="IProductoDAO" rx="2.5" ry="2.5" style="stroke:#333333;stroke-width:0.5;" width="123" x="1545.5" y="399.5"/>
            <ellipse cx="1560.5" cy="420.8516" fill="#B4A7E5" rx="11" ry="11" style="stroke:#181818;stroke-width:1.0;"/>
            <path d="M1561.4531,417.4922 L1561.4531,424.1484 L1563.1719,424.1484 Q1563.7813,424.1484 1564.0469,424.3828 Q1564.3125,424.6172 1564.3125,425.0078 Q1564.3125,425.3828 1564.0469,425.6172 Q1563.7813,425.8516 1563.1719,425.8516 L1558.0313,425.8516 Q1557.4219,425.8516 1557.1563,425.6172 Q1556.8906,425.3828 1556.8906,424.9922 Q1556.8906,424.6172 1557.1563,424.3828 Q1557.4219,424.1484 1558.0313,424.1484 L1559.75,424.1484 L1559.75,417.4922 L1558.0313,417.4922 Q1557.4219,417.4922 1557.1563,417.2578 Q1556.8906,417.0234 1556.8906,416.6328 Q1556.8906,416.2578 1557.1563,416.0234 Q1557.4219,415.7891 1558.0313,415.7891 L1563.1719,415.7891 Q1563.7813,415.7891 1564.0469,416.0234 Q1564.3125,416.2578 1564.3125,416.6328 Q1564.3125,417.0234 1564.0469,417.2578 Q1563.7813,417.4922 1563.1719,417.4922 L1561.4531,417.4922 Z " fill="#000000"/>
            <text fill="#000000" font-family="sans-serif" font-size="12" font-style="italic" lengthAdjust="spacing" textLength="40" x="1600" y="416.957">«DAO»</text>
            <text fill="#000000" font-family="sans-serif" font-size="14" font-style="italic" lengthAdjust="spacing" textLength="91" x="1574.5" y="434.127">IProductoDAO</text>
            <line style="stroke:#333333;stroke-width:0.5;" x1="1546.5" x2="1667.5" y1="442.2031" y2="442.2031"/>
            <line style="stroke:#333333;stroke-width:0.5;" x1="1546.5" x2="1667.5" y1="450.2031" y2="450.2031"/>
        </g>
        <!--class IUsuarioDAO-->
        <g id="elem_IUsuarioDAO">
            <rect codeLine="66" fill="#D4EDDA" height="58.7031" id="IUsuarioDAO" rx="2.5" ry="2.5" style="stroke:#333333;stroke-width:0.5;" width="115" x="1703.5" y="399.5"/>
            <ellipse cx="1718.5" cy="420.8516" fill="#B4A7E5" rx="11" ry="11" style="stroke:#181818;stroke-width:1.0;"/>
            <path d="M1719.4531,417.4922 L1719.4531,424.1484 L1721.1719,424.1484 Q1721.7813,424.1484 1722.0469,424.3828 Q1722.3125,424.6172 1722.3125,425.0078 Q1722.3125,425.3828 1722.0469,425.6172 Q1721.7813,425.8516 1721.1719,425.8516 L1716.0313,425.8516 Q1715.4219,425.8516 1715.1563,425.6172 Q1714.8906,425.3828 1714.8906,424.9922 Q1714.8906,424.6172 1715.1563,424.3828 Q1715.4219,424.1484 1716.0313,424.1484 L1717.75,424.1484 L1717.75,417.4922 L1716.0313,417.4922 Q1715.4219,417.4922 1715.1563,417.2578 Q1714.8906,417.0234 1714.8906,416.6328 Q1714.8906,416.2578 1715.1563,416.0234 Q1715.4219,415.7891 1716.0313,415.7891 L1721.1719,415.7891 Q1721.7813,415.7891 1722.0469,416.0234 Q1722.3125,416.2578 1722.3125,416.6328 Q1722.3125,417.0234 1722.0469,417.2578 Q1721.7813,417.4922 1721.1719,417.4922 L1719.4531,417.4922 Z " fill="#000000"/>
            <text fill="#000000" font-family="sans-serif" font-size="12" font-style="italic" lengthAdjust="spacing" textLength="40" x="1754" y="416.957">«DAO»</text>
            <text fill="#000000" font-family="sans-serif" font-size="14" font-style="italic" lengthAdjust="spacing" textLength="83" x="1732.5" y="434.127">IUsuarioDAO</text>
            <line style="stroke:#333333;stroke-width:0.5;" x1="1704.5" x2="1817.5" y1="442.2031" y2="442.2031"/>
            <line style="stroke:#333333;stroke-width:0.5;" x1="1704.5" x2="1817.5" y1="450.2031" y2="450.2031"/>
        </g>
        <!--class IPedidoDAO-->
        <g id="elem_IPedidoDAO">
            <rect codeLine="67" fill="#D4EDDA" height="58.7031" id="IPedidoDAO" rx="2.5" ry="2.5" style="stroke:#333333;stroke-width:0.5;" width="110" x="2017" y="399.5"/>
            <ellipse cx="2032" cy="420.8516" fill="#B4A7E5" rx="11" ry="11" style="stroke:#181818;stroke-width:1.0;"/>
            <path d="M2032.9531,417.4922 L2032.9531,424.1484 L2034.6719,424.1484 Q2035.2813,424.1484 2035.5469,424.3828 Q2035.8125,424.6172 2035.8125,425.0078 Q2035.8125,425.3828 2035.5469,425.6172 Q2035.2813,425.8516 2034.6719,425.8516 L2029.5313,425.8516 Q2028.9219,425.8516 2028.6563,425.6172 Q2028.3906,425.3828 2028.3906,424.9922 Q2028.3906,424.6172 2028.6563,424.3828 Q2028.9219,424.1484 2029.5313,424.1484 L2031.25,424.1484 L2031.25,417.4922 L2029.5313,417.4922 Q2028.9219,417.4922 2028.6563,417.2578 Q2028.3906,417.0234 2028.3906,416.6328 Q2028.3906,416.2578 2028.6563,416.0234 Q2028.9219,415.7891 2029.5313,415.7891 L2034.6719,415.7891 Q2035.2813,415.7891 2035.5469,416.0234 Q2035.8125,416.2578 2035.8125,416.6328 Q2035.8125,417.0234 2035.5469,417.2578 Q2035.2813,417.4922 2034.6719,417.4922 L2032.9531,417.4922 Z " fill="#000000"/>
            <text fill="#000000" font-family="sans-serif" font-size="12" font-style="italic" lengthAdjust="spacing" textLength="40" x="2065" y="416.957">«DAO»</text>
            <text fill="#000000" font-family="sans-serif" font-size="14" font-style="italic" lengthAdjust="spacing" textLength="78" x="2046" y="434.127">IPedidoDAO</text>
            <line style="stroke:#333333;stroke-width:0.5;" x1="2018" x2="2126" y1="442.2031" y2="442.2031"/>
            <line style="stroke:#333333;stroke-width:0.5;" x1="2018" x2="2126" y1="450.2031" y2="450.2031"/>
        </g>
        <!--class CategoriaDAO-->
        <g id="elem_CategoriaDAO">
            <rect codeLine="69" fill="#D4EDDA" height="58.7031" id="CategoriaDAO" rx="2.5" ry="2.5" style="stroke:#333333;stroke-width:0.5;" width="124" x="1854" y="589"/>
            <ellipse cx="1869" cy="610.3516" fill="#ADD1B2" rx="11" ry="11" style="stroke:#181818;stroke-width:1.0;"/>
            <path d="M1871.7656,606.2266 Q1871.9219,606.0078 1872.1094,605.8984 Q1872.2969,605.7891 1872.5156,605.7891 Q1872.8906,605.7891 1873.125,606.0547 Q1873.3594,606.3047 1873.3594,606.9141 L1873.3594,608.3672 Q1873.3594,608.9766 1873.125,609.2422 Q1872.8906,609.5078 1872.5156,609.5078 Q1872.1719,609.5078 1871.9688,609.3047 Q1871.7656,609.1172 1871.6563,608.6016 Q1871.6094,608.2422 1871.4219,608.0547 Q1871.0938,607.6797 1870.4844,607.4609 Q1869.875,607.2422 1869.25,607.2422 Q1868.4844,607.2422 1867.8438,607.5703 Q1867.2188,607.8984 1866.7188,608.6484 Q1866.2344,609.3984 1866.2344,610.4297 L1866.2344,611.5234 Q1866.2344,612.7578 1867.125,613.5859 Q1868.0156,614.3984 1869.6094,614.3984 Q1870.5469,614.3984 1871.2031,614.1484 Q1871.5938,613.9922 1872.0156,613.5547 Q1872.2813,613.2891 1872.4219,613.2109 Q1872.5781,613.1328 1872.7813,613.1328 Q1873.1094,613.1328 1873.3594,613.3984 Q1873.625,613.6484 1873.625,613.9922 Q1873.625,614.3359 1873.2813,614.7422 Q1872.7813,615.3203 1871.9844,615.6484 Q1870.9063,616.1016 1869.6094,616.1016 Q1868.0938,616.1016 1866.8906,615.4766 Q1865.9063,614.9766 1865.2188,613.9141 Q1864.5313,612.8359 1864.5313,611.5547 L1864.5313,610.3984 Q1864.5313,609.0703 1865.1406,607.9297 Q1865.7656,606.7734 1866.8594,606.1641 Q1867.9531,605.5391 1869.1875,605.5391 Q1869.9219,605.5391 1870.5625,605.7109 Q1871.2188,605.8672 1871.7656,606.2266 Z " fill="#000000"/>
            <text fill="#000000" font-family="sans-serif" font-size="12" font-style="italic" lengthAdjust="spacing" textLength="40" x="1909" y="606.457">«DAO»</text>
            <text fill="#000000" font-family="sans-serif" font-size="14" lengthAdjust="spacing" textLength="92" x="1883" y="623.627">CategoriaDAO</text>
            <line style="stroke:#333333;stroke-width:0.5;" x1="1855" x2="1977" y1="631.7031" y2="631.7031"/>
            <line style="stroke:#333333;stroke-width:0.5;" x1="1855" x2="1977" y1="639.7031" y2="639.7031"/>
        </g>
        <!--class ProductoDAO-->
        <g id="elem_ProductoDAO">
            <rect codeLine="70" fill="#D4EDDA" height="58.7031" id="ProductoDAO" rx="2.5" ry="2.5" style="stroke:#333333;stroke-width:0.5;" width="119" x="1549.5" y="589"/>
            <ellipse cx="1564.5" cy="610.3516" fill="#ADD1B2" rx="11" ry="11" style="stroke:#181818;stroke-width:1.0;"/>
            <path d="M1567.2656,606.2266 Q1567.4219,606.0078 1567.6094,605.8984 Q1567.7969,605.7891 1568.0156,605.7891 Q1568.3906,605.7891 1568.625,606.0547 Q1568.8594,606.3047 1568.8594,606.9141 L1568.8594,608.3672 Q1568.8594,608.9766 1568.625,609.2422 Q1568.3906,609.5078 1568.0156,609.5078 Q1567.6719,609.5078 1567.4688,609.3047 Q1567.2656,609.1172 1567.1563,608.6016 Q1567.1094,608.2422 1566.9219,608.0547 Q1566.5938,607.6797 1565.9844,607.4609 Q1565.375,607.2422 1564.75,607.2422 Q1563.9844,607.2422 1563.3438,607.5703 Q1562.7188,607.8984 1562.2188,608.6484 Q1561.7344,609.3984 1561.7344,610.4297 L1561.7344,611.5234 Q1561.7344,612.7578 1562.625,613.5859 Q1563.5156,614.3984 1565.1094,614.3984 Q1566.0469,614.3984 1566.7031,614.1484 Q1567.0938,613.9922 1567.5156,613.5547 Q1567.7813,613.2891 1567.9219,613.2109 Q1568.0781,613.1328 1568.2813,613.1328 Q1568.6094,613.1328 1568.8594,613.3984 Q1569.125,613.6484 1569.125,613.9922 Q1569.125,614.3359 1568.7813,614.7422 Q1568.2813,615.3203 1567.4844,615.6484 Q1566.4063,616.1016 1565.1094,616.1016 Q1563.5938,616.1016 1562.3906,615.4766 Q1561.4063,614.9766 1560.7188,613.9141 Q1560.0313,612.8359 1560.0313,611.5547 L1560.0313,610.3984 Q1560.0313,609.0703 1560.6406,607.9297 Q1561.2656,606.7734 1562.3594,606.1641 Q1563.4531,605.5391 1564.6875,605.5391 Q1565.4219,605.5391 1566.0625,605.7109 Q1566.7188,605.8672 1567.2656,606.2266 Z " fill="#000000"/>
            <text fill="#000000" font-family="sans-serif" font-size="12" font-style="italic" lengthAdjust="spacing" textLength="40" x="1602" y="606.457">«DAO»</text>
            <text fill="#000000" font-family="sans-serif" font-size="14" lengthAdjust="spacing" textLength="87" x="1578.5" y="623.627">ProductoDAO</text>
            <line style="stroke:#333333;stroke-width:0.5;" x1="1550.5" x2="1667.5" y1="631.7031" y2="631.7031"/>
            <line style="stroke:#333333;stroke-width:0.5;" x1="1550.5" x2="1667.5" y1="639.7031" y2="639.7031"/>
        </g>
        <!--class UsuarioDAO-->
        <g id="elem_UsuarioDAO">
            <rect codeLine="71" fill="#D4EDDA" height="58.7031" id="UsuarioDAO" rx="2.5" ry="2.5" style="stroke:#333333;stroke-width:0.5;" width="110" x="1707" y="589"/>
            <ellipse cx="1722" cy="610.3516" fill="#ADD1B2" rx="11" ry="11" style="stroke:#181818;stroke-width:1.0;"/>
            <path d="M1724.7656,606.2266 Q1724.9219,606.0078 1725.1094,605.8984 Q1725.2969,605.7891 1725.5156,605.7891 Q1725.8906,605.7891 1726.125,606.0547 Q1726.3594,606.3047 1726.3594,606.9141 L1726.3594,608.3672 Q1726.3594,608.9766 1726.125,609.2422 Q1725.8906,609.5078 1725.5156,609.5078 Q1725.1719,609.5078 1724.9688,609.3047 Q1724.7656,609.1172 1724.6563,608.6016 Q1724.6094,608.2422 1724.4219,608.0547 Q1724.0938,607.6797 1723.4844,607.4609 Q1722.875,607.2422 1722.25,607.2422 Q1721.4844,607.2422 1720.8438,607.5703 Q1720.2188,607.8984 1719.7188,608.6484 Q1719.2344,609.3984 1719.2344,610.4297 L1719.2344,611.5234 Q1719.2344,612.7578 1720.125,613.5859 Q1721.0156,614.3984 1722.6094,614.3984 Q1723.5469,614.3984 1724.2031,614.1484 Q1724.5938,613.9922 1725.0156,613.5547 Q1725.2813,613.2891 1725.4219,613.2109 Q1725.5781,613.1328 1725.7813,613.1328 Q1726.1094,613.1328 1726.3594,613.3984 Q1726.625,613.6484 1726.625,613.9922 Q1726.625,614.3359 1726.2813,614.7422 Q1725.7813,615.3203 1724.9844,615.6484 Q1723.9063,616.1016 1722.6094,616.1016 Q1721.0938,616.1016 1719.8906,615.4766 Q1718.9063,614.9766 1718.2188,613.9141 Q1717.5313,612.8359 1717.5313,611.5547 L1717.5313,610.3984 Q1717.5313,609.0703 1718.1406,607.9297 Q1718.7656,606.7734 1719.8594,606.1641 Q1720.9531,605.5391 1722.1875,605.5391 Q1722.9219,605.5391 1723.5625,605.7109 Q1724.2188,605.8672 1724.7656,606.2266 Z " fill="#000000"/>
            <text fill="#000000" font-family="sans-serif" font-size="12" font-style="italic" lengthAdjust="spacing" textLength="40" x="1755" y="606.457">«DAO»</text>
            <text fill="#000000" font-family="sans-serif" font-size="14" lengthAdjust="spacing" textLength="78" x="1736" y="623.627">UsuarioDAO</text>
            <line style="stroke:#333333;stroke-width:0.5;" x1="1708" x2="1816" y1="631.7031" y2="631.7031"/>
            <line style="stroke:#333333;stroke-width:0.5;" x1="1708" x2="1816" y1="639.7031" y2="639.7031"/>
        </g>
        <!--class PedidoDAO-->
        <g id="elem_PedidoDAO">
            <rect codeLine="72" fill="#D4EDDA" height="58.7031" id="PedidoDAO" rx="2.5" ry="2.5" style="stroke:#333333;stroke-width:0.5;" width="106" x="2016" y="589"/>
            <ellipse cx="2031" cy="610.3516" fill="#ADD1B2" rx="11" ry="11" style="stroke:#181818;stroke-width:1.0;"/>
            <path d="M2033.7656,606.2266 Q2033.9219,606.0078 2034.1094,605.8984 Q2034.2969,605.7891 2034.5156,605.7891 Q2034.8906,605.7891 2035.125,606.0547 Q2035.3594,606.3047 2035.3594,606.9141 L2035.3594,608.3672 Q2035.3594,608.9766 2035.125,609.2422 Q2034.8906,609.5078 2034.5156,609.5078 Q2034.1719,609.5078 2033.9688,609.3047 Q2033.7656,609.1172 2033.6563,608.6016 Q2033.6094,608.2422 2033.4219,608.0547 Q2033.0938,607.6797 2032.4844,607.4609 Q2031.875,607.2422 2031.25,607.2422 Q2030.4844,607.2422 2029.8438,607.5703 Q2029.2188,607.8984 2028.7188,608.6484 Q2028.2344,609.3984 2028.2344,610.4297 L2028.2344,611.5234 Q2028.2344,612.7578 2029.125,613.5859 Q2030.0156,614.3984 2031.6094,614.3984 Q2032.5469,614.3984 2033.2031,614.1484 Q2033.5938,613.9922 2034.0156,613.5547 Q2034.2813,613.2891 2034.4219,613.2109 Q2034.5781,613.1328 2034.7813,613.1328 Q2035.1094,613.1328 2035.3594,613.3984 Q2035.625,613.6484 2035.625,613.9922 Q2035.625,614.3359 2035.2813,614.7422 Q2034.7813,615.3203 2033.9844,615.6484 Q2032.9063,616.1016 2031.6094,616.1016 Q2030.0938,616.1016 2028.8906,615.4766 Q2027.9063,614.9766 2027.2188,613.9141 Q2026.5313,612.8359 2026.5313,611.5547 L2026.5313,610.3984 Q2026.5313,609.0703 2027.1406,607.9297 Q2027.7656,606.7734 2028.8594,606.1641 Q2029.9531,605.5391 2031.1875,605.5391 Q2031.9219,605.5391 2032.5625,605.7109 Q2033.2188,605.8672 2033.7656,606.2266 Z " fill="#000000"/>
            <text fill="#000000" font-family="sans-serif" font-size="12" font-style="italic" lengthAdjust="spacing" textLength="40" x="2062" y="606.457">«DAO»</text>
            <text fill="#000000" font-family="sans-serif" font-size="14" lengthAdjust="spacing" textLength="74" x="2045" y="623.627">PedidoDAO</text>
            <line style="stroke:#333333;stroke-width:0.5;" x1="2017" x2="2121" y1="631.7031" y2="631.7031"/>
            <line style="stroke:#333333;stroke-width:0.5;" x1="2017" x2="2121" y1="639.7031" y2="639.7031"/>
        </g>
        <!--class InicioController-->
        <g id="elem_InicioController">
            <rect codeLine="81" fill="#CCE5FF" height="58.7031" id="InicioController" rx="2.5" ry="2.5" style="stroke:#333333;stroke-width:0.5;" width="126" x="625" y="192.5"/>
            <ellipse cx="640" cy="213.8516" fill="#ADD1B2" rx="11" ry="11" style="stroke:#181818;stroke-width:1.0;"/>
            <path d="M642.7656,209.7266 Q642.9219,209.5078 643.1094,209.3984 Q643.2969,209.2891 643.5156,209.2891 Q643.8906,209.2891 644.125,209.5547 Q644.3594,209.8047 644.3594,210.4141 L644.3594,211.8672 Q644.3594,212.4766 644.125,212.7422 Q643.8906,213.0078 643.5156,213.0078 Q643.1719,213.0078 642.9688,212.8047 Q642.7656,212.6172 642.6563,212.1016 Q642.6094,211.7422 642.4219,211.5547 Q642.0938,211.1797 641.4844,210.9609 Q640.875,210.7422 640.25,210.7422 Q639.4844,210.7422 638.8438,211.0703 Q638.2188,211.3984 637.7188,212.1484 Q637.2344,212.8984 637.2344,213.9297 L637.2344,215.0234 Q637.2344,216.2578 638.125,217.0859 Q639.0156,217.8984 640.6094,217.8984 Q641.5469,217.8984 642.2031,217.6484 Q642.5938,217.4922 643.0156,217.0547 Q643.2813,216.7891 643.4219,216.7109 Q643.5781,216.6328 643.7813,216.6328 Q644.1094,216.6328 644.3594,216.8984 Q644.625,217.1484 644.625,217.4922 Q644.625,217.8359 644.2813,218.2422 Q643.7813,218.8203 642.9844,219.1484 Q641.9063,219.6016 640.6094,219.6016 Q639.0938,219.6016 637.8906,218.9766 Q636.9063,218.4766 636.2188,217.4141 Q635.5313,216.3359 635.5313,215.0547 L635.5313,213.8984 Q635.5313,212.5703 636.1406,211.4297 Q636.7656,210.2734 637.8594,209.6641 Q638.9531,209.0391 640.1875,209.0391 Q640.9219,209.0391 641.5625,209.2109 Q642.2188,209.3672 642.7656,209.7266 Z " fill="#000000"/>
            <text fill="#000000" font-family="sans-serif" font-size="12" font-style="italic" lengthAdjust="spacing" textLength="68" x="667" y="209.957">«Controller»</text>
            <text fill="#000000" font-family="sans-serif" font-size="14" lengthAdjust="spacing" textLength="94" x="654" y="227.127">InicioController</text>
            <line style="stroke:#333333;stroke-width:0.5;" x1="626" x2="750" y1="235.2031" y2="235.2031"/>
            <line style="stroke:#333333;stroke-width:0.5;" x1="626" x2="750" y1="243.2031" y2="243.2031"/>
        </g>
        <!--class LoginController-->
        <g id="elem_LoginController">
            <rect codeLine="82" fill="#CCE5FF" height="58.7031" id="LoginController" rx="2.5" ry="2.5" style="stroke:#333333;stroke-width:0.5;" width="129" x="947.5" y="192.5"/>
            <ellipse cx="962.5" cy="213.8516" fill="#ADD1B2" rx="11" ry="11" style="stroke:#181818;stroke-width:1.0;"/>
            <path d="M965.2656,209.7266 Q965.4219,209.5078 965.6094,209.3984 Q965.7969,209.2891 966.0156,209.2891 Q966.3906,209.2891 966.625,209.5547 Q966.8594,209.8047 966.8594,210.4141 L966.8594,211.8672 Q966.8594,212.4766 966.625,212.7422 Q966.3906,213.0078 966.0156,213.0078 Q965.6719,213.0078 965.4688,212.8047 Q965.2656,212.6172 965.1563,212.1016 Q965.1094,211.7422 964.9219,211.5547 Q964.5938,211.1797 963.9844,210.9609 Q963.375,210.7422 962.75,210.7422 Q961.9844,210.7422 961.3438,211.0703 Q960.7188,211.3984 960.2188,212.1484 Q959.7344,212.8984 959.7344,213.9297 L959.7344,215.0234 Q959.7344,216.2578 960.625,217.0859 Q961.5156,217.8984 963.1094,217.8984 Q964.0469,217.8984 964.7031,217.6484 Q965.0938,217.4922 965.5156,217.0547 Q965.7813,216.7891 965.9219,216.7109 Q966.0781,216.6328 966.2813,216.6328 Q966.6094,216.6328 966.8594,216.8984 Q967.125,217.1484 967.125,217.4922 Q967.125,217.8359 966.7813,218.2422 Q966.2813,218.8203 965.4844,219.1484 Q964.4063,219.6016 963.1094,219.6016 Q961.5938,219.6016 960.3906,218.9766 Q959.4063,218.4766 958.7188,217.4141 Q958.0313,216.3359 958.0313,215.0547 L958.0313,213.8984 Q958.0313,212.5703 958.6406,211.4297 Q959.2656,210.2734 960.3594,209.6641 Q961.4531,209.0391 962.6875,209.0391 Q963.4219,209.0391 964.0625,209.2109 Q964.7188,209.3672 965.2656,209.7266 Z " fill="#000000"/>
            <text fill="#000000" font-family="sans-serif" font-size="12" font-style="italic" lengthAdjust="spacing" textLength="68" x="991" y="209.957">«Controller»</text>
            <text fill="#000000" font-family="sans-serif" font-size="14" lengthAdjust="spacing" textLength="97" x="976.5" y="227.127">LoginController</text>
            <line style="stroke:#333333;stroke-width:0.5;" x1="948.5" x2="1075.5" y1="235.2031" y2="235.2031"/>
            <line style="stroke:#333333;stroke-width:0.5;" x1="948.5" x2="1075.5" y1="243.2031" y2="243.2031"/>
        </g>
        <!--class LogoutController-->
        <g id="elem_LogoutController">
            <rect codeLine="83" fill="#CCE5FF" height="58.7031" id="LogoutController" rx="2.5" ry="2.5" style="stroke:#333333;stroke-width:0.5;" width="138" x="71" y="192.5"/>
            <ellipse cx="86" cy="213.8516" fill="#ADD1B2" rx="11" ry="11" style="stroke:#181818;stroke-width:1.0;"/>
            <path d="M88.7656,209.7266 Q88.9219,209.5078 89.1094,209.3984 Q89.2969,209.2891 89.5156,209.2891 Q89.8906,209.2891 90.125,209.5547 Q90.3594,209.8047 90.3594,210.4141 L90.3594,211.8672 Q90.3594,212.4766 90.125,212.7422 Q89.8906,213.0078 89.5156,213.0078 Q89.1719,213.0078 88.9688,212.8047 Q88.7656,212.6172 88.6563,212.1016 Q88.6094,211.7422 88.4219,211.5547 Q88.0938,211.1797 87.4844,210.9609 Q86.875,210.7422 86.25,210.7422 Q85.4844,210.7422 84.8438,211.0703 Q84.2188,211.3984 83.7188,212.1484 Q83.2344,212.8984 83.2344,213.9297 L83.2344,215.0234 Q83.2344,216.2578 84.125,217.0859 Q85.0156,217.8984 86.6094,217.8984 Q87.5469,217.8984 88.2031,217.6484 Q88.5938,217.4922 89.0156,217.0547 Q89.2813,216.7891 89.4219,216.7109 Q89.5781,216.6328 89.7813,216.6328 Q90.1094,216.6328 90.3594,216.8984 Q90.625,217.1484 90.625,217.4922 Q90.625,217.8359 90.2813,218.2422 Q89.7813,218.8203 88.9844,219.1484 Q87.9063,219.6016 86.6094,219.6016 Q85.0938,219.6016 83.8906,218.9766 Q82.9063,218.4766 82.2188,217.4141 Q81.5313,216.3359 81.5313,215.0547 L81.5313,213.8984 Q81.5313,212.5703 82.1406,211.4297 Q82.7656,210.2734 83.8594,209.6641 Q84.9531,209.0391 86.1875,209.0391 Q86.9219,209.0391 87.5625,209.2109 Q88.2188,209.3672 88.7656,209.7266 Z " fill="#000000"/>
            <text fill="#000000" font-family="sans-serif" font-size="12" font-style="italic" lengthAdjust="spacing" textLength="68" x="119" y="209.957">«Controller»</text>
            <text fill="#000000" font-family="sans-serif" font-size="14" lengthAdjust="spacing" textLength="106" x="100" y="227.127">LogoutController</text>
            <line style="stroke:#333333;stroke-width:0.5;" x1="72" x2="208" y1="235.2031" y2="235.2031"/>
            <line style="stroke:#333333;stroke-width:0.5;" x1="72" x2="208" y1="243.2031" y2="243.2031"/>
        </g>
        <!--class RegistroController-->
        <g id="elem_RegistroController">
            <rect codeLine="84" fill="#CCE5FF" height="58.7031" id="RegistroController" rx="2.5" ry="2.5" style="stroke:#333333;stroke-width:0.5;" width="147" x="1341.5" y="192.5"/>
            <ellipse cx="1356.5" cy="213.8516" fill="#ADD1B2" rx="11" ry="11" style="stroke:#181818;stroke-width:1.0;"/>
            <path d="M1359.2656,209.7266 Q1359.4219,209.5078 1359.6094,209.3984 Q1359.7969,209.2891 1360.0156,209.2891 Q1360.3906,209.2891 1360.625,209.5547 Q1360.8594,209.8047 1360.8594,210.4141 L1360.8594,211.8672 Q1360.8594,212.4766 1360.625,212.7422 Q1360.3906,213.0078 1360.0156,213.0078 Q1359.6719,213.0078 1359.4688,212.8047 Q1359.2656,212.6172 1359.1563,212.1016 Q1359.1094,211.7422 1358.9219,211.5547 Q1358.5938,211.1797 1357.9844,210.9609 Q1357.375,210.7422 1356.75,210.7422 Q1355.9844,210.7422 1355.3438,211.0703 Q1354.7188,211.3984 1354.2188,212.1484 Q1353.7344,212.8984 1353.7344,213.9297 L1353.7344,215.0234 Q1353.7344,216.2578 1354.625,217.0859 Q1355.5156,217.8984 1357.1094,217.8984 Q1358.0469,217.8984 1358.7031,217.6484 Q1359.0938,217.4922 1359.5156,217.0547 Q1359.7813,216.7891 1359.9219,216.7109 Q1360.0781,216.6328 1360.2813,216.6328 Q1360.6094,216.6328 1360.8594,216.8984 Q1361.125,217.1484 1361.125,217.4922 Q1361.125,217.8359 1360.7813,218.2422 Q1360.2813,218.8203 1359.4844,219.1484 Q1358.4063,219.6016 1357.1094,219.6016 Q1355.5938,219.6016 1354.3906,218.9766 Q1353.4063,218.4766 1352.7188,217.4141 Q1352.0313,216.3359 1352.0313,215.0547 L1352.0313,213.8984 Q1352.0313,212.5703 1352.6406,211.4297 Q1353.2656,210.2734 1354.3594,209.6641 Q1355.4531,209.0391 1356.6875,209.0391 Q1357.4219,209.0391 1358.0625,209.2109 Q1358.7188,209.3672 1359.2656,209.7266 Z " fill="#000000"/>
            <text fill="#000000" font-family="sans-serif" font-size="12" font-style="italic" lengthAdjust="spacing" textLength="68" x="1394" y="209.957">«Controller»</text>
            <text fill="#000000" font-family="sans-serif" font-size="14" lengthAdjust="spacing" textLength="115" x="1370.5" y="227.127">RegistroController</text>
            <line style="stroke:#333333;stroke-width:0.5;" x1="1342.5" x2="1487.5" y1="235.2031" y2="235.2031"/>
            <line style="stroke:#333333;stroke-width:0.5;" x1="1342.5" x2="1487.5" y1="243.2031" y2="243.2031"/>
        </g>
        <!--class RegistroAjaxController-->
        <g id="elem_RegistroAjaxController">
            <rect codeLine="85" fill="#CCE5FF" height="58.7031" id="RegistroAjaxController" rx="2.5" ry="2.5" style="stroke:#333333;stroke-width:0.5;" width="173" x="244.5" y="192.5"/>
            <ellipse cx="259.5" cy="213.8516" fill="#ADD1B2" rx="11" ry="11" style="stroke:#181818;stroke-width:1.0;"/>
            <path d="M262.2656,209.7266 Q262.4219,209.5078 262.6094,209.3984 Q262.7969,209.2891 263.0156,209.2891 Q263.3906,209.2891 263.625,209.5547 Q263.8594,209.8047 263.8594,210.4141 L263.8594,211.8672 Q263.8594,212.4766 263.625,212.7422 Q263.3906,213.0078 263.0156,213.0078 Q262.6719,213.0078 262.4688,212.8047 Q262.2656,212.6172 262.1563,212.1016 Q262.1094,211.7422 261.9219,211.5547 Q261.5938,211.1797 260.9844,210.9609 Q260.375,210.7422 259.75,210.7422 Q258.9844,210.7422 258.3438,211.0703 Q257.7188,211.3984 257.2188,212.1484 Q256.7344,212.8984 256.7344,213.9297 L256.7344,215.0234 Q256.7344,216.2578 257.625,217.0859 Q258.5156,217.8984 260.1094,217.8984 Q261.0469,217.8984 261.7031,217.6484 Q262.0938,217.4922 262.5156,217.0547 Q262.7813,216.7891 262.9219,216.7109 Q263.0781,216.6328 263.2813,216.6328 Q263.6094,216.6328 263.8594,216.8984 Q264.125,217.1484 264.125,217.4922 Q264.125,217.8359 263.7813,218.2422 Q263.2813,218.8203 262.4844,219.1484 Q261.4063,219.6016 260.1094,219.6016 Q258.5938,219.6016 257.3906,218.9766 Q256.4063,218.4766 255.7188,217.4141 Q255.0313,216.3359 255.0313,215.0547 L255.0313,213.8984 Q255.0313,212.5703 255.6406,211.4297 Q256.2656,210.2734 257.3594,209.6641 Q258.4531,209.0391 259.6875,209.0391 Q260.4219,209.0391 261.0625,209.2109 Q261.7188,209.3672 262.2656,209.7266 Z " fill="#000000"/>
            <text fill="#000000" font-family="sans-serif" font-size="12" font-style="italic" lengthAdjust="spacing" textLength="68" x="310" y="209.957">«Controller»</text>
            <text fill="#000000" font-family="sans-serif" font-size="14" lengthAdjust="spacing" textLength="141" x="273.5" y="227.127">RegistroAjaxController</text>
            <line style="stroke:#333333;stroke-width:0.5;" x1="245.5" x2="416.5" y1="235.2031" y2="235.2031"/>
            <line style="stroke:#333333;stroke-width:0.5;" x1="245.5" x2="416.5" y1="243.2031" y2="243.2031"/>
        </g>
        <!--class PerfilController-->
        <g id="elem_PerfilController">
            <rect codeLine="86" fill="#CCE5FF" height="58.7031" id="PerfilController" rx="2.5" ry="2.5" style="stroke:#333333;stroke-width:0.5;" width="126" x="786" y="192.5"/>
            <ellipse cx="801" cy="213.8516" fill="#ADD1B2" rx="11" ry="11" style="stroke:#181818;stroke-width:1.0;"/>
            <path d="M803.7656,209.7266 Q803.9219,209.5078 804.1094,209.3984 Q804.2969,209.2891 804.5156,209.2891 Q804.8906,209.2891 805.125,209.5547 Q805.3594,209.8047 805.3594,210.4141 L805.3594,211.8672 Q805.3594,212.4766 805.125,212.7422 Q804.8906,213.0078 804.5156,213.0078 Q804.1719,213.0078 803.9688,212.8047 Q803.7656,212.6172 803.6563,212.1016 Q803.6094,211.7422 803.4219,211.5547 Q803.0938,211.1797 802.4844,210.9609 Q801.875,210.7422 801.25,210.7422 Q800.4844,210.7422 799.8438,211.0703 Q799.2188,211.3984 798.7188,212.1484 Q798.2344,212.8984 798.2344,213.9297 L798.2344,215.0234 Q798.2344,216.2578 799.125,217.0859 Q800.0156,217.8984 801.6094,217.8984 Q802.5469,217.8984 803.2031,217.6484 Q803.5938,217.4922 804.0156,217.0547 Q804.2813,216.7891 804.4219,216.7109 Q804.5781,216.6328 804.7813,216.6328 Q805.1094,216.6328 805.3594,216.8984 Q805.625,217.1484 805.625,217.4922 Q805.625,217.8359 805.2813,218.2422 Q804.7813,218.8203 803.9844,219.1484 Q802.9063,219.6016 801.6094,219.6016 Q800.0938,219.6016 798.8906,218.9766 Q797.9063,218.4766 797.2188,217.4141 Q796.5313,216.3359 796.5313,215.0547 L796.5313,213.8984 Q796.5313,212.5703 797.1406,211.4297 Q797.7656,210.2734 798.8594,209.6641 Q799.9531,209.0391 801.1875,209.0391 Q801.9219,209.0391 802.5625,209.2109 Q803.2188,209.3672 803.7656,209.7266 Z " fill="#000000"/>
            <text fill="#000000" font-family="sans-serif" font-size="12" font-style="italic" lengthAdjust="spacing" textLength="68" x="828" y="209.957">«Controller»</text>
            <text fill="#000000" font-family="sans-serif" font-size="14" lengthAdjust="spacing" textLength="94" x="815" y="227.127">PerfilController</text>
            <line style="stroke:#333333;stroke-width:0.5;" x1="787" x2="911" y1="235.2031" y2="235.2031"/>
            <line style="stroke:#333333;stroke-width:0.5;" x1="787" x2="911" y1="243.2031" y2="243.2031"/>
        </g>
        <!--class CarritoController-->
        <g id="elem_CarritoController">
            <rect codeLine="87" fill="#CCE5FF" height="58.7031" id="CarritoController" rx="2.5" ry="2.5" style="stroke:#333333;stroke-width:0.5;" width="137" x="452.5" y="192.5"/>
            <ellipse cx="467.5" cy="213.8516" fill="#ADD1B2" rx="11" ry="11" style="stroke:#181818;stroke-width:1.0;"/>
            <path d="M470.2656,209.7266 Q470.4219,209.5078 470.6094,209.3984 Q470.7969,209.2891 471.0156,209.2891 Q471.3906,209.2891 471.625,209.5547 Q471.8594,209.8047 471.8594,210.4141 L471.8594,211.8672 Q471.8594,212.4766 471.625,212.7422 Q471.3906,213.0078 471.0156,213.0078 Q470.6719,213.0078 470.4688,212.8047 Q470.2656,212.6172 470.1563,212.1016 Q470.1094,211.7422 469.9219,211.5547 Q469.5938,211.1797 468.9844,210.9609 Q468.375,210.7422 467.75,210.7422 Q466.9844,210.7422 466.3438,211.0703 Q465.7188,211.3984 465.2188,212.1484 Q464.7344,212.8984 464.7344,213.9297 L464.7344,215.0234 Q464.7344,216.2578 465.625,217.0859 Q466.5156,217.8984 468.1094,217.8984 Q469.0469,217.8984 469.7031,217.6484 Q470.0938,217.4922 470.5156,217.0547 Q470.7813,216.7891 470.9219,216.7109 Q471.0781,216.6328 471.2813,216.6328 Q471.6094,216.6328 471.8594,216.8984 Q472.125,217.1484 472.125,217.4922 Q472.125,217.8359 471.7813,218.2422 Q471.2813,218.8203 470.4844,219.1484 Q469.4063,219.6016 468.1094,219.6016 Q466.5938,219.6016 465.3906,218.9766 Q464.4063,218.4766 463.7188,217.4141 Q463.0313,216.3359 463.0313,215.0547 L463.0313,213.8984 Q463.0313,212.5703 463.6406,211.4297 Q464.2656,210.2734 465.3594,209.6641 Q466.4531,209.0391 467.6875,209.0391 Q468.4219,209.0391 469.0625,209.2109 Q469.7188,209.3672 470.2656,209.7266 Z " fill="#000000"/>
            <text fill="#000000" font-family="sans-serif" font-size="12" font-style="italic" lengthAdjust="spacing" textLength="68" x="500" y="209.957">«Controller»</text>
            <text fill="#000000" font-family="sans-serif" font-size="14" lengthAdjust="spacing" textLength="105" x="481.5" y="227.127">CarritoController</text>
            <line style="stroke:#333333;stroke-width:0.5;" x1="453.5" x2="588.5" y1="235.2031" y2="235.2031"/>
            <line style="stroke:#333333;stroke-width:0.5;" x1="453.5" x2="588.5" y1="243.2031" y2="243.2031"/>
        </g>
        <!--class CarritoAjaxController-->
        <g id="elem_CarritoAjaxController">
            <rect codeLine="88" fill="#CCE5FF" height="58.7031" id="CarritoAjaxController" rx="2.5" ry="2.5" style="stroke:#333333;stroke-width:0.5;" width="163" x="71.5" y="399.5"/>
            <ellipse cx="86.5" cy="420.8516" fill="#ADD1B2" rx="11" ry="11" style="stroke:#181818;stroke-width:1.0;"/>
            <path d="M89.2656,416.7266 Q89.4219,416.5078 89.6094,416.3984 Q89.7969,416.2891 90.0156,416.2891 Q90.3906,416.2891 90.625,416.5547 Q90.8594,416.8047 90.8594,417.4141 L90.8594,418.8672 Q90.8594,419.4766 90.625,419.7422 Q90.3906,420.0078 90.0156,420.0078 Q89.6719,420.0078 89.4688,419.8047 Q89.2656,419.6172 89.1563,419.1016 Q89.1094,418.7422 88.9219,418.5547 Q88.5938,418.1797 87.9844,417.9609 Q87.375,417.7422 86.75,417.7422 Q85.9844,417.7422 85.3438,418.0703 Q84.7188,418.3984 84.2188,419.1484 Q83.7344,419.8984 83.7344,420.9297 L83.7344,422.0234 Q83.7344,423.2578 84.625,424.0859 Q85.5156,424.8984 87.1094,424.8984 Q88.0469,424.8984 88.7031,424.6484 Q89.0938,424.4922 89.5156,424.0547 Q89.7813,423.7891 89.9219,423.7109 Q90.0781,423.6328 90.2813,423.6328 Q90.6094,423.6328 90.8594,423.8984 Q91.125,424.1484 91.125,424.4922 Q91.125,424.8359 90.7813,425.2422 Q90.2813,425.8203 89.4844,426.1484 Q88.4063,426.6016 87.1094,426.6016 Q85.5938,426.6016 84.3906,425.9766 Q83.4063,425.4766 82.7188,424.4141 Q82.0313,423.3359 82.0313,422.0547 L82.0313,420.8984 Q82.0313,419.5703 82.6406,418.4297 Q83.2656,417.2734 84.3594,416.6641 Q85.4531,416.0391 86.6875,416.0391 Q87.4219,416.0391 88.0625,416.2109 Q88.7188,416.3672 89.2656,416.7266 Z " fill="#000000"/>
            <text fill="#000000" font-family="sans-serif" font-size="12" font-style="italic" lengthAdjust="spacing" textLength="68" x="132" y="416.957">«Controller»</text>
            <text fill="#000000" font-family="sans-serif" font-size="14" lengthAdjust="spacing" textLength="131" x="100.5" y="434.127">CarritoAjaxController</text>
            <line style="stroke:#333333;stroke-width:0.5;" x1="72.5" x2="233.5" y1="442.2031" y2="442.2031"/>
            <line style="stroke:#333333;stroke-width:0.5;" x1="72.5" x2="233.5" y1="450.2031" y2="450.2031"/>
        </g>
        <!--class ProcesarPedidoController-->
        <g id="elem_ProcesarPedidoController">
            <rect codeLine="89" fill="#CCE5FF" height="58.7031" id="ProcesarPedidoController" rx="2.5" ry="2.5" style="stroke:#333333;stroke-width:0.5;" width="195" x="1111.5" y="192.5"/>
            <ellipse cx="1126.5" cy="213.8516" fill="#ADD1B2" rx="11" ry="11" style="stroke:#181818;stroke-width:1.0;"/>
            <path d="M1129.2656,209.7266 Q1129.4219,209.5078 1129.6094,209.3984 Q1129.7969,209.2891 1130.0156,209.2891 Q1130.3906,209.2891 1130.625,209.5547 Q1130.8594,209.8047 1130.8594,210.4141 L1130.8594,211.8672 Q1130.8594,212.4766 1130.625,212.7422 Q1130.3906,213.0078 1130.0156,213.0078 Q1129.6719,213.0078 1129.4688,212.8047 Q1129.2656,212.6172 1129.1563,212.1016 Q1129.1094,211.7422 1128.9219,211.5547 Q1128.5938,211.1797 1127.9844,210.9609 Q1127.375,210.7422 1126.75,210.7422 Q1125.9844,210.7422 1125.3438,211.0703 Q1124.7188,211.3984 1124.2188,212.1484 Q1123.7344,212.8984 1123.7344,213.9297 L1123.7344,215.0234 Q1123.7344,216.2578 1124.625,217.0859 Q1125.5156,217.8984 1127.1094,217.8984 Q1128.0469,217.8984 1128.7031,217.6484 Q1129.0938,217.4922 1129.5156,217.0547 Q1129.7813,216.7891 1129.9219,216.7109 Q1130.0781,216.6328 1130.2813,216.6328 Q1130.6094,216.6328 1130.8594,216.8984 Q1131.125,217.1484 1131.125,217.4922 Q1131.125,217.8359 1130.7813,218.2422 Q1130.2813,218.8203 1129.4844,219.1484 Q1128.4063,219.6016 1127.1094,219.6016 Q1125.5938,219.6016 1124.3906,218.9766 Q1123.4063,218.4766 1122.7188,217.4141 Q1122.0313,216.3359 1122.0313,215.0547 L1122.0313,213.8984 Q1122.0313,212.5703 1122.6406,211.4297 Q1123.2656,210.2734 1124.3594,209.6641 Q1125.4531,209.0391 1126.6875,209.0391 Q1127.4219,209.0391 1128.0625,209.2109 Q1128.7188,209.3672 1129.2656,209.7266 Z " fill="#000000"/>
            <text fill="#000000" font-family="sans-serif" font-size="12" font-style="italic" lengthAdjust="spacing" textLength="68" x="1188" y="209.957">«Controller»</text>
            <text fill="#000000" font-family="sans-serif" font-size="14" lengthAdjust="spacing" textLength="163" x="1140.5" y="227.127">ProcesarPedidoController</text>
            <line style="stroke:#333333;stroke-width:0.5;" x1="1112.5" x2="1305.5" y1="235.2031" y2="235.2031"/>
            <line style="stroke:#333333;stroke-width:0.5;" x1="1112.5" x2="1305.5" y1="243.2031" y2="243.2031"/>
        </g>
        <!--class Utilidades-->
        <g id="elem_Utilidades">
            <rect codeLine="101" fill="#F8D7DA" height="58.7031" id="Utilidades" rx="2.5" ry="2.5" style="stroke:#333333;stroke-width:0.5;" width="93" x="2183.5" y="399.5"/>
            <ellipse cx="2198.5" cy="420.8516" fill="#ADD1B2" rx="11" ry="11" style="stroke:#181818;stroke-width:1.0;"/>
            <path d="M2201.2656,416.7266 Q2201.4219,416.5078 2201.6094,416.3984 Q2201.7969,416.2891 2202.0156,416.2891 Q2202.3906,416.2891 2202.625,416.5547 Q2202.8594,416.8047 2202.8594,417.4141 L2202.8594,418.8672 Q2202.8594,419.4766 2202.625,419.7422 Q2202.3906,420.0078 2202.0156,420.0078 Q2201.6719,420.0078 2201.4688,419.8047 Q2201.2656,419.6172 2201.1563,419.1016 Q2201.1094,418.7422 2200.9219,418.5547 Q2200.5938,418.1797 2199.9844,417.9609 Q2199.375,417.7422 2198.75,417.7422 Q2197.9844,417.7422 2197.3438,418.0703 Q2196.7188,418.3984 2196.2188,419.1484 Q2195.7344,419.8984 2195.7344,420.9297 L2195.7344,422.0234 Q2195.7344,423.2578 2196.625,424.0859 Q2197.5156,424.8984 2199.1094,424.8984 Q2200.0469,424.8984 2200.7031,424.6484 Q2201.0938,424.4922 2201.5156,424.0547 Q2201.7813,423.7891 2201.9219,423.7109 Q2202.0781,423.6328 2202.2813,423.6328 Q2202.6094,423.6328 2202.8594,423.8984 Q2203.125,424.1484 2203.125,424.4922 Q2203.125,424.8359 2202.7813,425.2422 Q2202.2813,425.8203 2201.4844,426.1484 Q2200.4063,426.6016 2199.1094,426.6016 Q2197.5938,426.6016 2196.3906,425.9766 Q2195.4063,425.4766 2194.7188,424.4141 Q2194.0313,423.3359 2194.0313,422.0547 L2194.0313,420.8984 Q2194.0313,419.5703 2194.6406,418.4297 Q2195.2656,417.2734 2196.3594,416.6641 Q2197.4531,416.0391 2198.6875,416.0391 Q2199.4219,416.0391 2200.0625,416.2109 Q2200.7188,416.3672 2201.2656,416.7266 Z " fill="#000000"/>
            <text fill="#000000" font-family="sans-serif" font-size="12" font-style="italic" lengthAdjust="spacing" textLength="38" x="2224" y="416.957">«Utils»</text>
            <text fill="#000000" font-family="sans-serif" font-size="14" lengthAdjust="spacing" textLength="61" x="2212.5" y="434.127">Utilidades</text>
            <line style="stroke:#333333;stroke-width:0.5;" x1="2184.5" x2="2275.5" y1="442.2031" y2="442.2031"/>
            <line style="stroke:#333333;stroke-width:0.5;" x1="2184.5" x2="2275.5" y1="450.2031" y2="450.2031"/>
        </g>
        <!--link Producto to Categoria-->
        <g id="link_Producto_Categoria">
            <path codeLine="52" d="M2471,692.04 C2471,711.91 2471,733.09 2471,751.84 " fill="none" id="Producto-Categoria" style="stroke:#181818;stroke-width:1.0;"/>
            <text fill="#000000" font-family="sans-serif" font-size="13" lengthAdjust="spacing" textLength="57" x="2472" y="718.4351">pertenece</text>
            <text fill="#000000" font-family="sans-serif" font-size="13" lengthAdjust="spacing" textLength="7" x="2463.6664" y="713.3356">1</text>
            <text fill="#000000" font-family="sans-serif" font-size="13" lengthAdjust="spacing" textLength="7" x="2463.5516" y="741.1672">1</text>
        </g>
        <!--reverse link LineaCarrito to Producto-->
        <g id="link_LineaCarrito_Producto">
            <path codeLine="53" d="M2511,480.35 C2511,480.35 2511,544.94 2511,544.94 " fill="none" id="LineaCarrito-backto-Producto" style="stroke:#181818;stroke-width:1.0;"/>
            <polygon fill="none" points="2511,467.35,2507,473.35,2511,479.35,2515,473.35,2511,467.35" style="stroke:#181818;stroke-width:1.0;"/>
            <text fill="#000000" font-family="sans-serif" font-size="13" lengthAdjust="spacing" textLength="49" x="2461" y="509.1351">contiene</text>
            <text fill="#000000" font-family="sans-serif" font-size="13" lengthAdjust="spacing" textLength="7" x="2497.7266" y="488.8149">1</text>
            <text fill="#000000" font-family="sans-serif" font-size="13" lengthAdjust="spacing" textLength="7" x="2507.7641" y="534.0553">1</text>
        </g>
        <!--reverse link LineaPedido to Producto-->
        <g id="link_LineaPedido_Producto">
            <path codeLine="54" d="M2428.75,498.09 C2428.75,498.09 2428.75,544.97 2428.75,544.97 " fill="none" id="LineaPedido-backto-Producto" style="stroke:#181818;stroke-width:1.0;"/>
            <polygon fill="none" points="2428.75,485.09,2424.75,491.09,2428.75,497.09,2432.75,491.09,2428.75,485.09" style="stroke:#181818;stroke-width:1.0;"/>
            <text fill="#000000" font-family="sans-serif" font-size="13" lengthAdjust="spacing" textLength="49" x="2378.75" y="518.0251">contiene</text>
            <text fill="#000000" font-family="sans-serif" font-size="13" lengthAdjust="spacing" textLength="7" x="2425.4789" y="506.0429">1</text>
            <text fill="#000000" font-family="sans-serif" font-size="13" lengthAdjust="spacing" textLength="7" x="2417.032" y="534.0884">1</text>
        </g>
        <!--reverse link Pedido to LineaPedido-->
        <g id="link_Pedido_LineaPedido">
            <path codeLine="55" d="M2393,308.56 C2393,308.56 2393,372.92 2393,372.92 " fill="none" id="Pedido-backto-LineaPedido" style="stroke:#181818;stroke-width:1.0;"/>
            <polygon fill="#181818" points="2393,295.56,2389,301.56,2393,307.56,2397,301.56,2393,295.56" style="stroke:#181818;stroke-width:1.0;"/>
            <text fill="#000000" font-family="sans-serif" font-size="13" lengthAdjust="spacing" textLength="86" x="2306" y="337.2351">compuesto por</text>
            <text fill="#000000" font-family="sans-serif" font-size="13" lengthAdjust="spacing" textLength="7" x="2385.6664" y="316.8575">1</text>
            <text fill="#000000" font-family="sans-serif" font-size="13" lengthAdjust="spacing" textLength="5" x="2387.6797" y="362.2574">*</text>
        </g>
        <!--reverse link ICategoriaDAO to CategoriaDAO-->
        <g id="link_ICategoriaDAO_CategoriaDAO">
            <path d="M1916,478.61 C1916,478.61 1916,588.79 1916,588.79 " fill="none" id="ICategoriaDAO-backto-CategoriaDAO" style="stroke:#181818;stroke-width:1.0;stroke-dasharray:7.0,7.0;"/>
            <polygon fill="none" points="1909,478.61,1916,458.61,1923,478.61,1909,478.61" style="stroke:#181818;stroke-width:1.0;"/>
        </g>
        <!--reverse link IProductoDAO to ProductoDAO-->
        <g id="link_IProductoDAO_ProductoDAO">
            <path d="M1609,478.61 C1609,478.61 1609,588.79 1609,588.79 " fill="none" id="IProductoDAO-backto-ProductoDAO" style="stroke:#181818;stroke-width:1.0;stroke-dasharray:7.0,7.0;"/>
            <polygon fill="none" points="1602,478.61,1609,458.61,1616,478.61,1602,478.61" style="stroke:#181818;stroke-width:1.0;"/>
        </g>
        <!--reverse link IUsuarioDAO to UsuarioDAO-->
        <g id="link_IUsuarioDAO_UsuarioDAO">
            <path d="M1762,478.61 C1762,478.61 1762,588.79 1762,588.79 " fill="none" id="IUsuarioDAO-backto-UsuarioDAO" style="stroke:#181818;stroke-width:1.0;stroke-dasharray:7.0,7.0;"/>
            <polygon fill="none" points="1755,478.61,1762,458.61,1769,478.61,1755,478.61" style="stroke:#181818;stroke-width:1.0;"/>
        </g>
        <!--reverse link IPedidoDAO to PedidoDAO-->
        <g id="link_IPedidoDAO_PedidoDAO">
            <path d="M2069.5,478.61 C2069.5,478.61 2069.5,588.79 2069.5,588.79 " fill="none" id="IPedidoDAO-backto-PedidoDAO" style="stroke:#181818;stroke-width:1.0;stroke-dasharray:7.0,7.0;"/>
            <polygon fill="none" points="2062.5,478.61,2069.5,458.61,2076.5,478.61,2062.5,478.61" style="stroke:#181818;stroke-width:1.0;"/>
        </g>
        <!--link CategoriaDAO to ConnectionFactory-->
        <g id="link_CategoriaDAO_ConnectionFactory">
            <path codeLine="74" d="M1898,648.11 C1898,648.11 1898,755.91 1898,755.91 " fill="none" id="CategoriaDAO-to-ConnectionFactory" style="stroke:#181818;stroke-width:1.0;stroke-dasharray:7.0,7.0;"/>
            <polygon fill="#181818" points="1898,760.91,1902,751.91,1898,755.91,1894,751.91,1898,760.91" style="stroke:#181818;stroke-width:1.0;"/>
        </g>
        <!--link ProductoDAO to ConnectionFactory-->
        <g id="link_ProductoDAO_ConnectionFactory">
            <path codeLine="75" d="M1609,648.11 C1609,701.41 1609,808 1609,808 C1609,808 1730.77,808 1730.77,808 " fill="none" id="ProductoDAO-to-ConnectionFactory" style="stroke:#181818;stroke-width:1.0;stroke-dasharray:7.0,7.0;"/>
            <polygon fill="#181818" points="1735.77,808,1726.77,804,1730.77,808,1726.77,812,1735.77,808" style="stroke:#181818;stroke-width:1.0;"/>
        </g>
        <!--link UsuarioDAO to ConnectionFactory-->
        <g id="link_UsuarioDAO_ConnectionFactory">
            <path codeLine="76" d="M1776.5,648.11 C1776.5,648.11 1776.5,755.91 1776.5,755.91 " fill="none" id="UsuarioDAO-to-ConnectionFactory" style="stroke:#181818;stroke-width:1.0;stroke-dasharray:7.0,7.0;"/>
            <polygon fill="#181818" points="1776.5,760.91,1780.5,751.91,1776.5,755.91,1772.5,751.91,1776.5,760.91" style="stroke:#181818;stroke-width:1.0;"/>
        </g>
        <!--link PedidoDAO to ConnectionFactory-->
        <g id="link_PedidoDAO_ConnectionFactory">
            <path codeLine="77" d="M2069,648.11 C2069,701.41 2069,808 2069,808 C2069,808 1947.23,808 1947.23,808 " fill="none" id="PedidoDAO-to-ConnectionFactory" style="stroke:#181818;stroke-width:1.0;stroke-dasharray:7.0,7.0;"/>
            <polygon fill="#181818" points="1942.23,808,1951.23,812,1947.23,808,1951.23,804,1942.23,808" style="stroke:#181818;stroke-width:1.0;"/>
        </g>
        <!--link InicioController to IProductoDAO-->
        <g id="link_InicioController_IProductoDAO">
            <path codeLine="91" d="M688,251.64 C688,306.88 688,420 688,420 C688,420 1540.27,420 1540.27,420 " fill="none" id="InicioController-to-IProductoDAO" style="stroke:#181818;stroke-width:1.0;stroke-dasharray:7.0,7.0;"/>
            <polygon fill="#181818" points="1545.27,420,1536.27,416,1540.27,420,1536.27,424,1545.27,420" style="stroke:#181818;stroke-width:1.0;"/>
        </g>
        <!--link LoginController to IUsuarioDAO-->
        <g id="link_LoginController_IUsuarioDAO">
            <path codeLine="92" d="M990.5,251.64 C990.5,265.07 990.5,278 990.5,278 C990.5,278 1761,278 1761,278 C1761,278 1761,394.17 1761,394.17 " fill="none" id="LoginController-to-IUsuarioDAO" style="stroke:#181818;stroke-width:1.0;stroke-dasharray:7.0,7.0;"/>
            <polygon fill="#181818" points="1761,399.17,1765,390.17,1761,394.17,1757,390.17,1761,399.17" style="stroke:#181818;stroke-width:1.0;"/>
        </g>
        <!--link RegistroController to IUsuarioDAO-->
        <g id="link_RegistroController_IUsuarioDAO">
            <path codeLine="93" d="M1488.59,232 C1597.73,232 1789.75,232 1789.75,232 C1789.75,232 1789.75,394.08 1789.75,394.08 " fill="none" id="RegistroController-to-IUsuarioDAO" style="stroke:#181818;stroke-width:1.0;stroke-dasharray:7.0,7.0;"/>
            <polygon fill="#181818" points="1789.75,399.08,1793.75,390.08,1789.75,394.08,1785.75,390.08,1789.75,399.08" style="stroke:#181818;stroke-width:1.0;"/>
        </g>
        <!--link PerfilController to IUsuarioDAO-->
        <g id="link_PerfilController_IUsuarioDAO">
            <path codeLine="94" d="M870,251.84 C870,268.92 870,287 870,287 C870,287 1732.25,287 1732.25,287 C1732.25,287 1732.25,394.23 1732.25,394.23 " fill="none" id="PerfilController-to-IUsuarioDAO" style="stroke:#181818;stroke-width:1.0;stroke-dasharray:7.0,7.0;"/>
            <polygon fill="#181818" points="1732.25,399.23,1736.25,390.23,1732.25,394.23,1728.25,390.23,1732.25,399.23" style="stroke:#181818;stroke-width:1.0;"/>
        </g>
        <!--link PerfilController to IPedidoDAO-->
        <g id="link_PerfilController_IPedidoDAO">
            <path codeLine="95" d="M828,251.96 C828,275.74 828,305 828,305 C828,305 2053.67,305 2053.67,305 C2053.67,305 2053.67,394.3 2053.67,394.3 " fill="none" id="PerfilController-to-IPedidoDAO" style="stroke:#181818;stroke-width:1.0;stroke-dasharray:7.0,7.0;"/>
            <polygon fill="#181818" points="2053.67,399.3,2057.67,390.3,2053.67,394.3,2049.67,390.3,2053.67,399.3" style="stroke:#181818;stroke-width:1.0;"/>
        </g>
        <!--link CarritoController to IProductoDAO-->
        <g id="link_CarritoController_IProductoDAO">
            <path codeLine="96" d="M521,251.72 C521,311.15 521,439 521,439 C521,439 1540.11,439 1540.11,439 " fill="none" id="CarritoController-to-IProductoDAO" style="stroke:#181818;stroke-width:1.0;stroke-dasharray:7.0,7.0;"/>
            <polygon fill="#181818" points="1545.11,439,1536.11,435,1540.11,439,1536.11,443,1545.11,439" style="stroke:#181818;stroke-width:1.0;"/>
        </g>
        <!--link ProcesarPedidoController to IPedidoDAO-->
        <g id="link_ProcesarPedidoController_IPedidoDAO">
            <path codeLine="97" d="M1209,251.58 C1209,261.46 1209,270 1209,270 C1209,270 2090.33,270 2090.33,270 C2090.33,270 2090.33,394.47 2090.33,394.47 " fill="none" id="ProcesarPedidoController-to-IPedidoDAO" style="stroke:#181818;stroke-width:1.0;stroke-dasharray:7.0,7.0;"/>
            <polygon fill="#181818" points="2090.33,399.47,2094.33,390.47,2090.33,394.47,2086.33,390.47,2090.33,399.47" style="stroke:#181818;stroke-width:1.0;"/>
        </g>
        <!--link RegistroController to Utilidades-->
        <g id="link_RegistroController_Utilidades">
            <path codeLine="102" d="M1488.7,213 C1691.96,213 2245.5,213 2245.5,213 C2245.5,213 2245.5,394.42 2245.5,394.42 " fill="none" id="RegistroController-to-Utilidades" style="stroke:#181818;stroke-width:1.0;stroke-dasharray:7.0,7.0;"/>
            <polygon fill="#181818" points="2245.5,399.42,2249.5,390.42,2245.5,394.42,2241.5,390.42,2245.5,399.42" style="stroke:#181818;stroke-width:1.0;"/>
        </g>
        <!--link LoginController to Utilidades-->
        <g id="link_LoginController_Utilidades">
            <path codeLine="103" d="M1033.5,251.56 C1033.5,257 1033.5,261 1033.5,261 C1033.5,261 2214.5,261 2214.5,261 C2214.5,261 2214.5,394.35 2214.5,394.35 " fill="none" id="LoginController-to-Utilidades" style="stroke:#181818;stroke-width:1.0;stroke-dasharray:7.0,7.0;"/>
            <polygon fill="#181818" points="2214.5,399.35,2218.5,390.35,2214.5,394.35,2210.5,390.35,2214.5,399.35" style="stroke:#181818;stroke-width:1.0;"/>
        </g>
        <!--SRC=[dLPHRvim47xdLrZfmxPEZJPjqwQggfH18rMQj6fTVy35NAXNi95jkcLL_liE2C60eNGyD2httTrttvtFc0SXSz2GCPw2CIjhjTWK5g-vahVYBx9tWJb2KY7Hxd9aIjjxvHXou0-GuAtTfSWqSWioIJ48Nh5GfKgZOIMEnMAB6YKNe1bbOnnoC4wOYW9x2XWzNobaebKXuoh4nKNqy_lb9JjPhzSVmcW4igeWqSUhA5hv8Q6ILgiqHLqYm_3gqthjHzvPaPeguvVeSnDEwHXr1M0d7weds0V1eNosGBFaAikLH6dHQDmjDmZIB0urrVM5O35HMW1hYggjvNF6HDpQpzbcPz4nIfLjDDBxMsgJJ5otZ0Z8hcNl9BtHAYwuLICvZ-PpPkwfkxDovjHfKRh4gjYaBiyCD8V_eNbd2j1YZ6LZ7PB434JgvKXHVrFNVBRnogJO-buNgHMPMd6EfYGHGQSvy0YM1dkqjczqUY04hSL86pX8AsA8E_KD8jnWBE8nXIg4Hn_gSEqsD3sRTJBXQDWjydiOYeJ6GeNtZ4PE4T0tJk8Hkg_fp9K_nwbTl5-mixFgnpqzEL90YRnswkXVGjN1nHb-sdfMa4lhS2Xm3jw1dfRGqqKdH8dEye8KK8nAVMPnq2xhhGqbgHGhb5m39TSxrYoyjYDFfAuLVC_UiWHjw_7w3MLl__NXUQeCzZmUbOYTSQZ-22Aejy2HNH-b9XeDcJwcqMe2SZZLKq4g0Ls0RvqwzdAOKin8JDEbwTc8OswEVRYWnfnQy-00ZUPfh7LHdNAMoyjXtpkZFuros4w4EjBpOwRdb1ylrDurToq5tGxjVSkwbw-xrbGYv4oWAkmSv0zCX273Ix2hN_1d3lw6nbAaSv27PVC2w6mEMj4b1BhktRX7vJBeHDddmNptkr21UlFiaTK76oWq7zIUXlemz0NqKXzLenToUfAByeElEyFbDs1vDz87RFj1-BIVqg9r6LNLWUp_0G00]-->
    </g>
</svg>
